<svg xmlns="http://www.w3.org/2000/svg" width="634.634" height="826.909" viewBox="0 0 634.634 826.909">
    <defs>
        <filter id="9yfga73lab" x="5.513" y="254.196" width="557.21" height="572.714" filterUnits="userSpaceOnUse">
            <feOffset dy="3"/>
            <feGaussianBlur stdDeviation="3" result="blur"/>
            <feFlood flood-opacity=".161"/>
            <feComposite operator="in" in2="blur"/>
            <feComposite in="SourceGraphic"/>
        </filter>
        <filter id="48b5ufwkgc" x="8.414" y="0" width="626.221" height="699.256" filterUnits="userSpaceOnUse">
            <feOffset dy="3"/>
            <feGaussianBlur stdDeviation="3" result="blur-2"/>
            <feFlood flood-opacity=".161"/>
            <feComposite operator="in" in2="blur-2"/>
            <feComposite in="SourceGraphic"/>
        </filter>
        <filter id="9c1ru0dayd" x="0" y="233.263" width="564.572" height="578.58" filterUnits="userSpaceOnUse">
            <feOffset dy="3"/>
            <feGaussianBlur stdDeviation="3" result="blur-3"/>
            <feFlood flood-opacity=".161"/>
            <feComposite operator="in" in2="blur-3"/>
            <feComposite in="SourceGraphic"/>
        </filter>
        <linearGradient id="bvxe5ugnga" x1=".885" y1=".064" x2=".5" y2="1" gradientUnits="objectBoundingBox">
            <stop offset="0" stop-color="#f16422" stop-opacity=".949"/>
            <stop offset=".174" stop-color="#e14826" stop-opacity=".2"/>
            <stop offset=".405" stop-color="#eb5924" stop-opacity=".522"/>
            <stop offset=".646" stop-color="#e54f25" stop-opacity=".749"/>
            <stop offset=".88" stop-color="#e34b26" stop-opacity=".812"/>
            <stop offset="1" stop-color="#e14826" stop-opacity=".929"/>
        </linearGradient>
    </defs>
    <g data-name="Group 1436">
        <path data-name="Path 1" d="M121.418 342.623a204.942 204.942 0 0 0 1.54 23.9c-22.4 20.056-41.347 45.864-41.352 78.15 0 58.809 43.918 106.787 97.588 106.787 134.374-.682 270.772-.022 385.94 0 24.967.666 45.278-12.725 58.332-29.733a102.73 102.73 0 0 0 21.061-55.7c0-26.226-8.487-50.938-24.812-66.74-11.938-11.795-29.583-13.441-46.754-15.048-1.275-78.827-59.582-142.83-131.878-142.83-2.361 0-4.846.248-7.277.374-12.174-33.354-30.608-60.934-55.465-72.927-27.043-13.05-55.8-14.349-80.493-12.5-106.241 5.686-174.04 100.611-176.434 186.256z" transform="rotate(117 333.444 362.97)" style="fill:url(#bvxe5ugnga)"/>
        <g style="filter:url(#9yfga73lab)">
            <path data-name="Path 2" d="M284.43 145.748c20.026.325 41.457 3.567 61.938 13.452 25.618 12.363 53.648 47.214 66.186 81.589 2.511-.127 4.336-3.156 6.767-3.156 74.5 0 126.275 62.333 127.593 143.56 17.69 1.657 35.866 3.352 48.169 15.506a90.1 90.1 0 0 1 14.4 122.172c10.363.022 12.8.061 23.152.061 24.967.666 45.272-12.847 58.322-29.86a102.871 102.871 0 0 0 21.066-55.708c.485-26.453-9.658-52.9-24.8-66.623-11.938-11.79-29.6-13.452-46.768-15.06-1.275-78.826-59.572-142.854-131.878-142.854-2.041 0-4.211.259-6.3.385-10.313-29.062-24.847-54.377-45.628-67.108-22.711-13.915-47.864-17.674-71.01-18.561-33.549-1.277-74.4 6-101.209 22.188z" transform="matrix(-.424 .903 -.903 -.424 782.954 223.576)" style="opacity:.4;fill:url(#bvxe5ugnga)"/>
        </g>
        <g data-name="noun-cloud-4955340" style="opacity:.53">
            <g style="filter:url(#48b5ufwkgc)" transform="matrix(.997 .003 -.003 .997 0 -.012)">
                <path data-name="Path 1" d="M121.418 342.623a204.942 204.942 0 0 0 1.54 23.9c-22.4 20.056-41.347 45.864-41.352 78.15 0 58.809 43.918 106.787 97.588 106.787 134.374-.682 270.772-.022 385.94 0 24.967.666 45.278-12.725 58.332-29.733a102.73 102.73 0 0 0 21.061-55.7c0-26.226-8.487-50.938-24.812-66.74-11.938-11.795-29.583-13.441-46.754-15.048-1.275-78.827-59.582-142.83-131.878-142.83-2.361 0-4.846.248-7.277.374-12.174-33.354-30.608-60.934-55.465-72.927-27.043-13.05-55.8-14.349-80.493-12.5-106.241 5.686-174.04 100.611-176.434 186.256z" transform="matrix(-.45 .89 -.89 -.45 801.4 183.66)" style="fill:url(#bvxe5ugnga)"/>
            </g>
            <g style="filter:url(#9c1ru0dayd)" transform="matrix(.997 .003 -.003 .997 0 -.012)">
                <path data-name="Path 2" d="M284.43 145.748c20.026.325 41.457 3.567 61.938 13.452 25.618 12.363 44.613 40.792 57.152 75.166 2.511-.127 5.066-.352 7.5-.352 74.5 0 134.579 65.952 135.9 147.179 17.69 1.657 35.866 3.352 48.169 15.506a90.1 90.1 0 0 1 14.4 122.172c10.363.022 12.8.061 23.152.061 24.967.666 45.272-12.847 58.322-29.86a102.871 102.871 0 0 0 21.066-55.708c.485-26.453-9.658-52.9-24.8-66.623-11.938-11.79-29.6-13.452-46.768-15.06-1.275-78.826-59.572-142.854-131.878-142.854-2.041 0-4.211.259-6.3.385-10.313-29.062-24.847-54.377-45.628-67.108-22.711-13.915-47.864-17.674-71.01-18.561-33.549-1.277-74.4 6-101.209 22.188z" transform="matrix(-.45 .89 -.89 -.45 794.65 221.43)" style="fill:url(#bvxe5ugnga)"/>
            </g>
        </g>
    </g>
</svg>
